<?xml version="1.0" encoding="UTF-8" standalone="no"?>
<svg width="54px" height="54px" viewBox="0 0 54 54" version="1.1" xmlns="http://www.w3.org/2000/svg" xmlns:xlink="http://www.w3.org/1999/xlink">
    <!-- Generator: Sketch 3.8.3 (29802) - http://www.bohemiancoding.com/sketch -->
    <title>instagram</title>
    <desc>Created with Sketch.</desc>
    <defs></defs>
    <g id="v5" stroke="none" stroke-width="1" fill="none" fill-rule="evenodd">
        <g id="sobre" transform="translate(-316.000000, -3966.000000)">
            <g id="redes-sociais" transform="translate(1.000000, 3842.000000)">
                <g transform="translate(231.000000, 124.000000)" id="instagram">
                    <g transform="translate(84.000000, 0.000000)">
                        <rect id="Rectangle" x="0" y="0" width="54" height="54"></rect>
                        <ellipse id="Oval" fill="#FDB933" cx="27" cy="27" rx="27" ry="27"></ellipse>
                        <g id="insta" transform="translate(15.000000, 14.000000)" fill="#FFFFFF">
                            <ellipse id="Oval" cx="11.9791667" cy="12.7573333" rx="2.60416667" ry="2.63466667"></ellipse>
                            <path d="M17.3245614,12.7573333 C17.3245614,15.6693333 14.9945175,18.1653333 11.9791667,18.1653333 C8.96381579,18.1653333 6.63377193,15.808 6.63377193,12.7573333 C6.63377193,11.0933333 7.31907895,9.70666667 8.55263158,8.736 L0.0548245614,8.736 L0.0548245614,19.552 C0.0548245614,22.464 2.38486842,24.96 5.4002193,24.96 L18.6951754,24.96 C21.5734649,24.96 24.0405702,22.6026667 24.0405702,19.552 L24.0405702,8.736 L15.4057018,8.736 C16.6392544,9.70666667 17.3245614,11.0933333 17.3245614,12.7573333 L17.3245614,12.7573333 Z M18.6951754,0.693333333 L5.4002193,0.693333333 C2.52192982,0.693333333 0.0548245614,3.05066667 0.0548245614,6.10133333 L0.0548245614,7.488 L24.0405702,7.488 L24.0405702,6.10133333 C23.9035088,3.05066667 21.5734649,0.693333333 18.6951754,0.693333333 L18.6951754,0.693333333 Z M21.2993421,4.71466667 C21.2993421,5.408 20.6140351,6.10133333 19.9287281,6.10133333 L18.558114,6.10133333 C17.872807,6.10133333 17.1875,5.408 17.1875,4.71466667 L17.1875,3.328 C17.1875,2.63466667 17.872807,1.94133333 18.558114,1.94133333 L19.9287281,1.94133333 C20.6140351,1.94133333 21.2993421,2.63466667 21.2993421,3.328 L21.2993421,4.71466667 L21.2993421,4.71466667 Z" id="Shape"></path>
                        </g>
                    </g>
                </g>
            </g>
        </g>
    </g>
</svg>