<?xml version="1.0" encoding="UTF-8" standalone="no"?>
<svg width="55px" height="54px" viewBox="0 0 55 54" version="1.1" xmlns="http://www.w3.org/2000/svg" xmlns:xlink="http://www.w3.org/1999/xlink">
    <!-- Generator: Sketch 3.8.3 (29802) - http://www.bohemiancoding.com/sketch -->
    <title>linkedin</title>
    <desc>Created with Sketch.</desc>
    <defs></defs>
    <g id="v5" stroke="none" stroke-width="1" fill="none" fill-rule="evenodd">
        <g id="sobre" transform="translate(-654.000000, -3966.000000)">
            <g id="redes-sociais" transform="translate(1.000000, 3842.000000)">
                <g transform="translate(231.000000, 124.000000)" id="linkedin">
                    <g transform="translate(422.272727, 0.000000)">
                        <rect id="Rectangle" x="0" y="0" width="54" height="54"></rect>
                        <ellipse id="Oval" fill="#FDB933" cx="27" cy="27" rx="27" ry="27"></ellipse>
                        <path d="M15.3463931,22.5979115 L20.1305054,22.5979115 L20.1305054,39.2711557 L15.3463931,39.2711557 L15.3463931,22.5979115 Z M17.6165013,20.5123808 L17.5818652,20.5123808 C15.8500599,20.5123808 14.7272727,19.2378025 14.7272727,17.6237558 C14.7272727,15.9767052 15.8832528,14.7272727 17.6496943,14.7272727 C19.4146926,14.7272727 20.4999572,15.973562 20.5345933,17.619041 C20.5345933,19.2330877 19.4146926,20.5123808 17.6165013,20.5123808 L17.6165013,20.5123808 Z M39.2727273,39.2727273 L33.847847,39.2727273 L33.847847,30.6429993 C33.847847,28.3845912 32.9992624,26.8444103 31.1332421,26.8444103 C29.7059459,26.8444103 28.9122017,27.8832466 28.5427499,28.8875074 C28.4042055,29.2458352 28.4258531,29.7471798 28.4258531,30.250096 L28.4258531,39.2727273 L23.0514838,39.2727273 C23.0514838,39.2727273 23.120756,23.9872175 23.0514838,22.5979115 L28.4258531,22.5979115 L28.4258531,25.2146474 C28.7433507,24.070513 30.4607244,22.437607 33.2013063,22.437607 C36.6014175,22.437607 39.2727273,24.8374603 39.2727273,30.0002095 L39.2727273,39.2727273 L39.2727273,39.2727273 Z" id="Shape" fill="#FFFFFF"></path>
                    </g>
                </g>
            </g>
        </g>
    </g>
</svg>