<?xml version="1.0" encoding="UTF-8" standalone="no"?>
<svg width="55px" height="54px" viewBox="0 0 55 54" version="1.1" xmlns="http://www.w3.org/2000/svg" xmlns:xlink="http://www.w3.org/1999/xlink">
    <!-- Generator: Sketch 3.8.3 (29802) - http://www.bohemiancoding.com/sketch -->
    <title>pinterest-light</title>
    <desc>Created with Sketch.</desc>
    <defs></defs>
    <g id="v5" stroke="none" stroke-width="1" fill="none" fill-rule="evenodd">
        <g id="sobre" transform="translate(-484.000000, -3966.000000)">
            <g id="redes-sociais" transform="translate(1.000000, 3842.000000)">
                <g transform="translate(231.000000, 124.000000)" id="pinterest-light">
                    <g transform="translate(252.909091, 0.000000)">
                        <rect id="Rectangle" x="0" y="0" width="54" height="54"></rect>
                        <ellipse id="Oval" fill="#FDB933" cx="27" cy="27" rx="27" ry="27"></ellipse>
                        <path d="M14.7272727,24.9494502 C14.7272727,28.1023288 15.9139716,30.9067895 18.4574694,31.9520428 C18.8747151,32.1232307 19.2479349,31.9580847 19.3690062,31.4928564 C19.4530557,31.1716273 19.6521729,30.3599952 19.7402248,30.0216473 C19.8622967,29.5624609 19.815269,29.4013429 19.4780704,29.0005618 C18.7456391,28.1295174 18.2763627,27.0026982 18.2763627,25.4056157 C18.2763627,20.7744792 21.7193903,16.6277038 27.2436435,16.6277038 C32.1345237,16.6277038 34.8211058,19.6355761 34.8211058,23.6514431 C34.8211058,28.9361146 32.496737,33.3970701 29.0477059,33.3970701 C27.1415834,33.3970701 25.7157437,31.8110645 26.173013,29.8665712 C26.7203353,27.5444576 27.7799593,25.0380652 27.7799593,23.3624376 C27.7799593,21.8620259 26.9794879,20.6113472 25.3245133,20.6113472 C23.3773667,20.6113472 21.8114445,22.6384135 21.8114445,25.3542593 C21.8114445,27.0852712 22.3927869,28.2543839 22.3927869,28.2543839 C22.3927869,28.2543839 20.3996131,36.7543672 20.0504075,38.242695 C19.3549979,41.2072668 19.9463462,44.8404785 19.9963756,45.207022 C20.0253927,45.4245313 20.3025559,45.4768947 20.4286302,45.3127557 C20.6087363,45.0761136 22.9271015,42.1941148 23.717567,39.3151369 C23.9396978,38.4994769 24.9973206,34.2771774 24.9973206,34.2771774 C25.6306936,35.4916046 27.4797825,36.5610255 29.4459404,36.5610255 C35.3013886,36.5610255 39.2727273,31.1897531 39.2727273,23.9998608 C39.2727273,18.5631342 34.6970327,13.5 27.7429375,13.5 C19.0908424,13.5 14.7272727,19.7433238 14.7272727,24.9494502 Z" id="Shape" fill="#FFFFFF"></path>
                    </g>
                </g>
            </g>
        </g>
    </g>
</svg>