<?xml version="1.0" encoding="UTF-8" standalone="no"?>
<svg width="55px" height="54px" viewBox="0 0 55 54" version="1.1" xmlns="http://www.w3.org/2000/svg" xmlns:xlink="http://www.w3.org/1999/xlink">
    <!-- Generator: Sketch 3.8.3 (29802) - http://www.bohemiancoding.com/sketch -->
    <title>twitter</title>
    <desc>Created with Sketch.</desc>
    <defs></defs>
    <g id="v5" stroke="none" stroke-width="1" fill="none" fill-rule="evenodd">
        <g id="sobre" transform="translate(-569.000000, -3966.000000)">
            <g id="redes-sociais" transform="translate(1.000000, 3842.000000)">
                <g transform="translate(231.000000, 124.000000)" id="twitter">
                    <g transform="translate(337.363636, 0.000000)">
                        <rect id="Rectangle" x="0" y="0" width="54" height="54"></rect>
                        <ellipse id="Oval" fill="#FDB933" cx="27" cy="27" rx="27" ry="27"></ellipse>
                        <path d="M37.4639101,20.674307 C38.5561158,19.985063 39.3941795,18.8921645 39.7874946,17.5902591 C38.7648754,18.2300435 37.6348509,18.6927304 36.4291889,18.9432196 C35.4670797,17.8582984 34.0919896,17.1818182 32.5701628,17.1818182 C29.6505547,17.1818182 27.2846132,19.6787323 27.2846132,22.7579938 C27.2846132,23.1951532 27.3284829,23.6211443 27.4192479,24.0279897 C23.026221,23.7950508 19.1308889,21.5773443 16.5213946,18.201325 C16.0660568,19.0277796 15.8058637,19.985063 15.8058637,21.0061652 C15.8058637,22.9398776 16.7392307,24.6470329 18.1581905,25.6489895 C17.2913845,25.620271 16.4760121,25.3665909 15.7619939,24.9517682 L15.7619939,25.0203735 C15.7619939,27.7231035 17.5833453,29.9775058 20.0052586,30.4880569 C19.56051,30.6188857 19.0945829,30.6843 18.6105028,30.6843 C18.270134,30.6843 17.9373289,30.6507951 17.6166258,30.5853807 C18.288287,32.7998963 20.2412477,34.4145142 22.5557557,34.457592 C20.7449935,35.9541449 18.4652788,36.8444185 15.9889065,36.8444185 C15.5623109,36.8444185 15.1402536,36.8204864 14.7272727,36.7678358 C17.0674975,38.3489488 19.8464198,39.2727273 22.832589,39.2727273 C32.5595735,39.2727273 37.8753782,30.7752419 37.8753782,23.4057555 C37.8753782,23.1632437 37.8723527,22.9223274 37.8617634,22.6846021 C38.8949719,21.8980342 39.7935456,20.9152233 40.5,19.7967972 C39.5515055,20.2403385 38.5319118,20.5402873 37.4639101,20.674307 Z" id="Shape" fill="#FFFFFF"></path>
                    </g>
                </g>
            </g>
        </g>
    </g>
</svg>